<?xml version="1.0" encoding="utf-8"?>
<svg width="600px" height="400px" viewBox="0 0 600 400" version="1.1" xmlns:xlink="http://www.w3.org/1999/xlink" xmlns="http://www.w3.org/2000/svg">
  <defs>
    <path d="M520 0C564.189 0 600 35.8112 600 80L600 320C600 364.189 564.189 400 520 400L80 400C35.8112 400 0 364.189 0 320L0 80C0 35.8112 35.8112 0 80 0L520 0Z" id="path_1" />
    <clipPath id="clip_1">
      <use xlink:href="#path_1" clip-rule="evenodd" fill-rule="evenodd" />
    </clipPath>
  </defs>
  <g id="logo" clip-path="url(#clip_1)">
    <path d="M520 0C564.189 0 600 35.8112 600 80L600 320C600 364.189 564.189 400 520 400L80 400C35.8112 400 0 364.189 0 320L0 80C0 35.8112 35.8112 0 80 0L520 0Z" id="logo" fill="none" stroke="none" />
    <path d="M332.245 16L379.424 16Q379.57 16 379.717 16.0086Q379.863 16.0171 380.008 16.0342Q380.154 16.0514 380.298 16.0769Q380.442 16.1025 380.584 16.1365Q380.727 16.1705 380.867 16.2127Q381.007 16.255 381.145 16.3054Q381.282 16.3558 381.416 16.4141Q381.551 16.4725 381.681 16.5386Q381.812 16.6047 381.939 16.6783Q382.065 16.752 382.187 16.8329Q382.309 16.9138 382.426 17.0017Q382.543 17.0897 382.655 17.1843Q382.767 17.2789 382.873 17.3799Q382.979 17.4809 383.079 17.5879Q383.179 17.695 383.272 17.8077Q383.366 17.9203 383.452 18.0383Q383.539 18.1563 383.619 18.2791Q383.699 18.402 383.771 18.5293Q383.843 18.6566 383.908 18.7879Q383.973 18.9192 384.03 19.0541Q384.087 19.189 384.136 19.3269Q384.185 19.4649 384.226 19.6055Q384.266 19.7462 384.299 19.8889Q384.332 20.0317 384.356 20.1761Q384.38 20.3205 384.395 20.4661Q384.411 20.6117 384.418 20.7579Q384.425 20.9042 384.424 21.0506Q384.422 21.197 384.412 21.3431Q384.402 21.4892 384.384 21.6344Q384.365 21.7797 384.338 21.9236Q384.311 22.0675 384.276 22.2095Q384.24 22.3516 384.196 22.4914L272.009 381.491Q271.95 381.681 271.876 381.865Q271.802 382.048 271.714 382.226Q271.626 382.403 271.523 382.573Q271.422 382.743 271.306 382.905Q271.191 383.066 271.064 383.218Q270.936 383.369 270.797 383.511Q270.658 383.652 270.508 383.781Q270.358 383.911 270.198 384.028Q270.039 384.146 269.87 384.25Q269.702 384.355 269.525 384.445Q269.349 384.536 269.166 384.613Q268.983 384.689 268.795 384.751Q268.607 384.813 268.414 384.859Q268.221 384.906 268.026 384.937Q267.83 384.969 267.632 384.984Q267.435 385 267.237 385L220.057 385Q219.911 385 219.765 384.991Q219.618 384.983 219.473 384.966Q219.328 384.949 219.183 384.923Q219.039 384.897 218.897 384.864Q218.754 384.83 218.614 384.787Q218.474 384.745 218.337 384.695Q218.199 384.644 218.065 384.586Q217.93 384.528 217.8 384.461Q217.669 384.395 217.543 384.322Q217.416 384.248 217.294 384.167Q217.172 384.086 217.055 383.998Q216.938 383.91 216.826 383.816Q216.714 383.721 216.608 383.62Q216.502 383.519 216.402 383.412Q216.302 383.305 216.209 383.192Q216.115 383.08 216.029 382.962Q215.942 382.844 215.862 382.721Q215.783 382.598 215.71 382.471Q215.638 382.343 215.573 382.212Q215.508 382.081 215.451 381.946Q215.394 381.811 215.345 381.673Q215.296 381.535 215.256 381.395Q215.215 381.254 215.182 381.111Q215.15 380.968 215.126 380.824Q215.101 380.68 215.086 380.534Q215.07 380.388 215.063 380.242Q215.056 380.096 215.057 379.949Q215.059 379.803 215.069 379.657Q215.079 379.511 215.098 379.366Q215.116 379.22 215.143 379.076Q215.17 378.933 215.206 378.79Q215.241 378.648 215.285 378.509L327.472 19.5086Q327.531 19.3194 327.605 19.1355Q327.679 18.9516 327.768 18.7741Q327.856 18.5966 327.958 18.4267Q328.06 18.2567 328.175 18.0954Q328.29 17.934 328.418 17.7823Q328.545 17.6306 328.684 17.4895Q328.824 17.3483 328.973 17.2186Q329.123 17.089 329.283 16.9715Q329.443 16.8541 329.611 16.7497Q329.78 16.6453 329.956 16.5546Q330.132 16.4639 330.315 16.3874Q330.498 16.3109 330.686 16.2491Q330.875 16.1873 331.067 16.1406Q331.26 16.094 331.456 16.0627Q331.651 16.0314 331.849 16.0157Q332.047 16 332.245 16Z" id="Slash" fill="#228BE6" fill-rule="evenodd" stroke="none" />
    <path d="M192.423 93.0791L191.939 142.667Q191.937 142.845 191.923 143.023Q191.908 143.201 191.881 143.378Q191.854 143.554 191.814 143.728Q191.775 143.902 191.723 144.073Q191.671 144.244 191.607 144.41Q191.543 144.577 191.467 144.739Q191.391 144.9 191.304 145.056Q191.217 145.212 191.119 145.361Q191.021 145.51 190.913 145.652Q190.805 145.794 190.687 145.928Q190.568 146.062 190.441 146.187Q190.314 146.312 190.178 146.427Q190.042 146.543 189.898 146.649Q189.754 146.754 189.603 146.849Q189.452 146.944 189.294 147.029Q189.137 147.113 188.974 147.185L69.3025 200.5L188.942 253.801Q189.107 253.874 189.265 253.959Q189.424 254.044 189.576 254.14Q189.729 254.236 189.874 254.343Q190.018 254.45 190.155 254.567Q190.292 254.683 190.42 254.81Q190.548 254.936 190.667 255.072Q190.786 255.207 190.894 255.351Q191.003 255.494 191.101 255.645Q191.199 255.796 191.286 255.954Q191.373 256.112 191.448 256.275Q191.524 256.439 191.587 256.607Q191.65 256.776 191.702 256.948Q191.753 257.121 191.791 257.297Q191.83 257.473 191.856 257.651Q191.882 257.829 191.894 258.008Q191.907 258.188 191.907 258.368L191.907 307.995Q191.907 308.151 191.898 308.307Q191.888 308.464 191.868 308.619Q191.849 308.775 191.819 308.928Q191.79 309.082 191.751 309.234Q191.713 309.386 191.664 309.535Q191.616 309.683 191.559 309.829Q191.501 309.975 191.435 310.117Q191.368 310.258 191.293 310.396Q191.218 310.533 191.134 310.665Q191.051 310.798 190.959 310.925Q190.867 311.052 190.768 311.172Q190.668 311.293 190.561 311.408Q190.454 311.522 190.341 311.63Q190.227 311.737 190.106 311.837Q189.986 311.938 189.86 312.03Q189.733 312.122 189.601 312.207Q189.469 312.291 189.333 312.367Q189.196 312.443 189.054 312.51Q188.913 312.578 188.767 312.636Q188.622 312.694 188.473 312.743Q188.325 312.792 188.173 312.832Q188.022 312.871 187.868 312.901Q187.714 312.932 187.559 312.952Q187.404 312.972 187.248 312.983Q187.091 312.994 186.935 312.995Q186.778 312.995 186.622 312.986Q186.466 312.978 186.31 312.959Q186.155 312.94 186.001 312.912Q185.847 312.883 185.695 312.845Q185.543 312.807 185.394 312.76Q185.244 312.713 185.098 312.656Q184.952 312.599 184.81 312.534L10.9029 232.187Q10.7415 232.112 10.5857 232.026Q10.4299 231.94 10.2806 231.844Q10.1314 231.747 9.98933 231.64Q9.8473 231.533 9.71325 231.416Q9.5792 231.299 9.45379 231.173Q9.32839 231.046 9.21227 230.912Q9.09615 230.777 8.98989 230.634Q8.88364 230.491 8.7878 230.342Q8.69196 230.192 8.607 230.035Q8.52205 229.879 8.44842 229.717Q8.37479 229.555 8.31285 229.389Q8.25092 229.222 8.20099 229.051Q8.15106 228.88 8.11339 228.706Q8.07572 228.533 8.0505 228.357Q8.02528 228.18 8.01264 228.003Q8 227.826 8 227.648L8 173.357Q8 173.179 8.01267 173.001Q8.02534 172.823 8.05061 172.647Q8.07588 172.471 8.11363 172.297Q8.15138 172.123 8.20142 171.952Q8.25145 171.781 8.31352 171.614Q8.37559 171.447 8.44937 171.285Q8.52315 171.123 8.60828 170.967Q8.69341 170.81 8.78945 170.66Q8.88549 170.51 8.99195 170.367Q9.09841 170.225 9.21476 170.09Q9.33111 169.955 9.45676 169.829Q9.5824 169.703 9.71671 169.586Q9.85101 169.469 9.9933 169.362Q10.1356 169.255 10.2851 169.158Q10.4347 169.061 10.5907 168.975Q10.7467 168.89 10.9085 168.815L185.332 88.4887Q185.475 88.4229 185.621 88.3662Q185.768 88.3096 185.918 88.2622Q186.068 88.2149 186.22 88.177Q186.373 88.1392 186.528 88.1111Q186.682 88.0829 186.839 88.0645Q186.995 88.0461 187.152 88.0376Q187.309 88.0291 187.466 88.0304Q187.623 88.0318 187.78 88.043Q187.937 88.0542 188.093 88.0753Q188.249 88.0964 188.403 88.1272Q188.557 88.158 188.709 88.1984Q188.861 88.2389 189.01 88.2888Q189.159 88.3387 189.305 88.3979Q189.451 88.457 189.592 88.5253Q189.734 88.5935 189.871 88.6705Q190.008 88.7475 190.14 88.8329Q190.272 88.9184 190.399 89.0119Q190.525 89.1055 190.645 89.2068Q190.765 89.3082 190.879 89.4169Q190.993 89.5256 191.099 89.6412Q191.206 89.7568 191.305 89.8789Q191.404 90.0009 191.495 90.129Q191.587 90.2571 191.67 90.3906Q191.753 90.5242 191.827 90.6627Q191.902 90.8012 191.967 90.9441Q192.033 91.087 192.089 91.2338Q192.146 91.3805 192.193 91.5305Q192.24 91.6805 192.278 91.8332Q192.315 91.9859 192.343 92.1406Q192.371 92.2954 192.39 92.4516Q192.408 92.6078 192.416 92.7648Q192.424 92.9218 192.423 93.0791Z" id="LT" fill="#FFFFFF" fill-rule="evenodd" stroke="none" />
    <path d="M407.107 92.5846L407.593 142.178Q407.594 142.357 407.609 142.535Q407.623 142.713 407.65 142.89Q407.678 143.066 407.717 143.24Q407.757 143.415 407.809 143.586Q407.861 143.757 407.925 143.923Q407.989 144.09 408.065 144.252Q408.141 144.414 408.228 144.57Q408.315 144.725 408.414 144.875Q408.512 145.024 408.62 145.166Q408.729 145.308 408.847 145.442Q408.965 145.576 409.093 145.701Q409.221 145.826 409.357 145.941Q409.493 146.057 409.637 146.163Q409.781 146.268 409.933 146.363Q410.084 146.458 410.242 146.542Q410.399 146.626 410.563 146.699L530.597 200.015L410.594 253.318Q410.43 253.391 410.271 253.476Q410.112 253.56 409.959 253.656Q409.807 253.752 409.662 253.859Q409.516 253.966 409.379 254.083Q409.242 254.2 409.114 254.326Q408.986 254.453 408.867 254.588Q408.748 254.724 408.639 254.867Q408.53 255.011 408.432 255.162Q408.334 255.313 408.247 255.471Q408.159 255.629 408.084 255.792Q408.008 255.956 407.945 256.125Q407.881 256.293 407.83 256.466Q407.779 256.639 407.74 256.815Q407.702 256.991 407.676 257.169Q407.65 257.347 407.637 257.527Q407.624 257.707 407.624 257.887L407.624 307.52Q407.624 307.676 407.634 307.832Q407.644 307.988 407.663 308.144Q407.683 308.299 407.712 308.453Q407.741 308.607 407.78 308.758Q407.819 308.91 407.867 309.059Q407.915 309.208 407.972 309.353Q408.03 309.499 408.096 309.641Q408.163 309.782 408.238 309.919Q408.313 310.057 408.396 310.189Q408.48 310.321 408.572 310.448Q408.663 310.575 408.763 310.696Q408.862 310.817 408.969 310.931Q409.076 311.046 409.189 311.153Q409.303 311.261 409.423 311.361Q409.543 311.461 409.67 311.554Q409.796 311.646 409.928 311.73Q410.06 311.815 410.196 311.891Q410.333 311.967 410.474 312.034Q410.616 312.101 410.761 312.16Q410.906 312.218 411.055 312.267Q411.203 312.316 411.355 312.356Q411.506 312.396 411.66 312.426Q411.813 312.456 411.968 312.477Q412.123 312.497 412.28 312.508Q412.436 312.519 412.592 312.52Q412.749 312.521 412.905 312.512Q413.061 312.503 413.217 312.484Q413.372 312.466 413.526 312.438Q413.68 312.409 413.832 312.372Q413.983 312.334 414.133 312.287Q414.282 312.239 414.428 312.183Q414.574 312.126 414.716 312.061L589.176 231.7Q589.337 231.626 589.493 231.54Q589.649 231.454 589.799 231.357Q589.948 231.261 590.091 231.154Q590.233 231.047 590.367 230.93Q590.502 230.813 590.627 230.686Q590.753 230.56 590.869 230.425Q590.985 230.291 591.092 230.148Q591.198 230.005 591.294 229.855Q591.39 229.705 591.476 229.549Q591.561 229.392 591.634 229.23Q591.708 229.068 591.77 228.901Q591.832 228.734 591.882 228.564Q591.932 228.393 591.97 228.219Q592.008 228.045 592.033 227.868Q592.058 227.692 592.071 227.515Q592.084 227.337 592.084 227.159L592.084 172.876Q592.084 172.698 592.071 172.52Q592.058 172.342 592.033 172.166Q592.008 171.989 591.97 171.815Q591.932 171.641 591.882 171.47Q591.832 171.299 591.77 171.132Q591.707 170.965 591.633 170.802Q591.56 170.64 591.474 170.484Q591.389 170.327 591.293 170.177Q591.196 170.027 591.09 169.884Q590.983 169.741 590.867 169.606Q590.75 169.472 590.624 169.345Q590.498 169.219 590.364 169.102Q590.229 168.985 590.087 168.878Q589.944 168.771 589.794 168.674Q589.645 168.578 589.488 168.492Q589.332 168.406 589.17 168.332L414.193 87.9917Q414.05 87.9261 413.903 87.8697Q413.757 87.8132 413.607 87.766Q413.457 87.7189 413.304 87.6812Q413.152 87.6436 412.997 87.6156Q412.842 87.5876 412.686 87.5694Q412.53 87.5511 412.373 87.5428Q412.216 87.5344 412.059 87.5359Q411.902 87.5374 411.745 87.5487Q411.589 87.5601 411.433 87.5812Q411.277 87.6024 411.123 87.6333Q410.969 87.6643 410.817 87.7048Q410.665 87.7453 410.516 87.7953Q410.367 87.8453 410.222 87.9045Q410.076 87.9638 409.935 88.0321Q409.793 88.1003 409.656 88.1774Q409.519 88.2544 409.387 88.3399Q409.255 88.4254 409.129 88.519Q409.003 88.6125 408.883 88.7139Q408.762 88.8152 408.649 88.9239Q408.535 89.0326 408.429 89.1482Q408.322 89.2638 408.223 89.3858Q408.125 89.5079 408.033 89.6359Q407.942 89.764 407.859 89.8975Q407.776 90.031 407.702 90.1694Q407.628 90.3079 407.562 90.4507Q407.497 90.5936 407.44 90.7403Q407.384 90.8869 407.337 91.0369Q407.289 91.1868 407.252 91.3394Q407.214 91.492 407.186 91.6467Q407.158 91.8013 407.14 91.9575Q407.122 92.1136 407.114 92.2705Q407.105 92.4274 407.107 92.5846Z" id="GT" fill="#FFFFFF" fill-rule="evenodd" stroke="none" />
  </g>
</svg>