<?xml version="1.0" encoding="utf-8"?>
<svg width="600px" height="600px" viewBox="0 0 600 600" version="1.1" xmlns:xlink="http://www.w3.org/1999/xlink" xmlns="http://www.w3.org/2000/svg">
  <defs>
    <path d="M520 0C564.189 0 600 35.8112 600 80L600 520C600 564.189 564.189 600 520 600L80 600C35.8112 600 0 564.189 0 520L0 80C0 35.8112 35.8112 0 80 0L520 0Z" id="path_1" />
    <path d="M283.97 0L325.524 0Q325.67 0 325.817 0.00856855Q325.963 0.0171371 326.108 0.0342448Q326.254 0.0513526 326.398 0.0769409Q326.542 0.102529 326.684 0.13651Q326.827 0.170491 326.967 0.212749Q327.107 0.255006 327.245 0.305395Q327.382 0.355785 327.516 0.414132Q327.651 0.47248 327.781 0.538587Q327.912 0.604694 328.039 0.678333Q328.165 0.751972 328.287 0.832891Q328.409 0.91381 328.526 1.00173Q328.643 1.08965 328.755 1.18428Q328.867 1.2789 328.973 1.3799Q329.079 1.4809 329.179 1.58793Q329.279 1.69496 329.372 1.80765Q329.466 1.92035 329.552 2.03832Q329.639 2.15629 329.719 2.27913Q329.799 2.40198 329.871 2.52928Q329.943 2.65657 330.008 2.78789Q330.073 2.9192 330.13 3.05408Q330.187 3.18896 330.236 3.32694Q330.285 3.46493 330.326 3.60554Q330.367 3.74615 330.399 3.88891Q330.432 4.03168 330.456 4.1761Q330.48 4.32052 330.495 4.4661Q330.511 4.61169 330.518 4.75794Q330.525 4.90419 330.524 5.05061Q330.522 5.19703 330.512 5.3431Q330.502 5.48918 330.484 5.63442Q330.465 5.77966 330.438 5.92356Q330.411 6.06747 330.376 6.20954Q330.34 6.35162 330.296 6.49137L229.359 329.491Q229.3 329.681 229.226 329.864Q229.152 330.048 229.064 330.226Q228.976 330.403 228.874 330.573Q228.771 330.743 228.656 330.905Q228.541 331.066 228.414 331.218Q228.286 331.369 228.147 331.511Q228.008 331.652 227.858 331.781Q227.708 331.911 227.548 332.028Q227.389 332.146 227.22 332.25Q227.052 332.355 226.875 332.445Q226.699 332.536 226.516 332.613Q226.333 332.689 226.145 332.751Q225.957 332.813 225.764 332.859Q225.571 332.906 225.376 332.937Q225.18 332.969 224.982 332.984Q224.785 333 224.587 333L183.032 333Q182.886 333 182.74 332.991Q182.593 332.983 182.448 332.966Q182.303 332.949 182.158 332.923Q182.014 332.897 181.872 332.863Q181.729 332.829 181.589 332.787Q181.449 332.745 181.312 332.695Q181.174 332.644 181.04 332.586Q180.905 332.528 180.775 332.461Q180.644 332.395 180.518 332.322Q180.391 332.248 180.269 332.167Q180.147 332.086 180.03 331.998Q179.913 331.91 179.801 331.816Q179.689 331.721 179.583 331.62Q179.477 331.519 179.377 331.412Q179.277 331.305 179.184 331.192Q179.09 331.08 179.004 330.962Q178.917 330.844 178.837 330.721Q178.758 330.598 178.685 330.471Q178.613 330.343 178.548 330.212Q178.483 330.081 178.426 329.946Q178.369 329.811 178.32 329.673Q178.271 329.535 178.231 329.394Q178.19 329.254 178.157 329.111Q178.125 328.968 178.101 328.824Q178.076 328.68 178.061 328.534Q178.045 328.388 178.038 328.242Q178.031 328.096 178.032 327.949Q178.034 327.803 178.044 327.657Q178.054 327.511 178.073 327.366Q178.091 327.22 178.118 327.076Q178.145 326.933 178.181 326.79Q178.216 326.648 178.26 326.509L279.197 3.50862Q279.257 3.31943 279.33 3.13551Q279.404 2.9516 279.493 2.77411Q279.581 2.59662 279.683 2.42667Q279.785 2.25672 279.9 2.09538Q280.015 1.93404 280.143 1.78233Q280.27 1.63061 280.409 1.48947Q280.549 1.34832 280.698 1.21864Q280.848 1.08896 281.008 0.971546Q281.168 0.854137 281.336 0.749737Q281.505 0.645338 281.681 0.554604Q281.857 0.463871 282.04 0.387372Q282.223 0.310874 282.411 0.249091Q282.6 0.187308 282.792 0.140629Q282.985 0.093949 283.181 0.0626655Q283.376 0.031382 283.574 0.015691Q283.772 0 283.97 0Z" id="path_2" />
    <path d="M166.423 70.3291L165.997 113.996Q165.995 114.174 165.98 114.352Q165.966 114.53 165.939 114.707Q165.912 114.883 165.872 115.057Q165.832 115.231 165.78 115.402Q165.729 115.573 165.665 115.739Q165.601 115.906 165.525 116.068Q165.449 116.229 165.362 116.385Q165.275 116.541 165.177 116.69Q165.079 116.839 164.971 116.981Q164.863 117.123 164.744 117.257Q164.626 117.391 164.499 117.516Q164.371 117.641 164.235 117.756Q164.099 117.872 163.956 117.978Q163.812 118.083 163.661 118.178Q163.51 118.273 163.352 118.357Q163.195 118.442 163.032 118.514L55.3217 166.5L163 214.472Q163.164 214.545 163.323 214.63Q163.482 214.715 163.634 214.811Q163.786 214.907 163.931 215.014Q164.076 215.121 164.213 215.238Q164.35 215.355 164.478 215.481Q164.606 215.607 164.725 215.743Q164.844 215.878 164.952 216.022Q165.061 216.165 165.159 216.316Q165.257 216.467 165.344 216.625Q165.431 216.783 165.506 216.946Q165.581 217.11 165.645 217.278Q165.708 217.447 165.759 217.619Q165.811 217.792 165.849 217.968Q165.888 218.144 165.914 218.322Q165.939 218.5 165.952 218.679Q165.965 218.859 165.965 219.039L165.965 262.745Q165.965 262.901 165.955 263.057Q165.946 263.214 165.926 263.369Q165.907 263.524 165.877 263.678Q165.848 263.832 165.809 263.984Q165.77 264.136 165.722 264.285Q165.674 264.434 165.617 264.579Q165.559 264.725 165.493 264.867Q165.426 265.008 165.351 265.146Q165.276 265.283 165.192 265.415Q165.109 265.548 165.017 265.675Q164.925 265.802 164.826 265.922Q164.726 266.043 164.619 266.158Q164.512 266.272 164.398 266.38Q164.285 266.487 164.164 266.587Q164.044 266.688 163.917 266.78Q163.791 266.872 163.659 266.957Q163.527 267.041 163.39 267.117Q163.253 267.193 163.112 267.26Q162.971 267.328 162.825 267.386Q162.68 267.444 162.531 267.493Q162.382 267.542 162.231 267.582Q162.08 267.621 161.926 267.651Q161.772 267.682 161.617 267.702Q161.462 267.722 161.305 267.733Q161.149 267.744 160.993 267.745Q160.836 267.745 160.68 267.736Q160.523 267.728 160.368 267.709Q160.213 267.69 160.059 267.662Q159.905 267.633 159.753 267.595Q159.601 267.557 159.451 267.51Q159.302 267.463 159.156 267.406Q159.01 267.349 158.868 267.284L2.90294 195.226Q2.74146 195.152 2.58568 195.066Q2.42991 194.98 2.28063 194.883Q2.13135 194.786 1.98933 194.679Q1.84731 194.572 1.71325 194.455Q1.5792 194.338 1.45379 194.212Q1.32839 194.086 1.21227 193.951Q1.09615 193.816 0.989894 193.674Q0.883643 193.531 0.787799 193.381Q0.691955 193.231 0.607003 193.075Q0.522051 192.919 0.448421 192.757Q0.374791 192.595 0.312855 192.428Q0.250918 192.261 0.200989 192.09Q0.15106 191.92 0.113391 191.746Q0.0757216 191.572 0.0505024 191.396Q0.0252832 191.22 0.0126416 191.042Q0 190.865 0 190.687L0 142.317Q0 142.139 0.0126688 141.962Q0.0253375 141.784 0.0506109 141.608Q0.0758842 141.431 0.113634 141.257Q0.151384 141.083 0.201419 140.912Q0.251454 140.741 0.31352 140.575Q0.375587 140.408 0.449371 140.246Q0.523155 140.083 0.608282 139.927Q0.693409 139.771 0.789448 139.621Q0.885486 139.471 0.99195 139.328Q1.09841 139.185 1.21476 139.05Q1.33111 138.916 1.45676 138.789Q1.5824 138.663 1.71671 138.546Q1.85102 138.429 1.9933 138.322Q2.13558 138.215 2.28512 138.118Q2.43467 138.022 2.59071 137.936Q2.74675 137.85 2.9085 137.776L159.332 65.7387Q159.475 65.6729 159.621 65.6162Q159.768 65.5596 159.918 65.5122Q160.068 65.4649 160.22 65.4271Q160.373 65.3892 160.528 65.3611Q160.682 65.3329 160.839 65.3145Q160.995 65.2962 161.152 65.2876Q161.309 65.2791 161.466 65.2804Q161.623 65.2818 161.78 65.293Q161.937 65.3042 162.093 65.3253Q162.249 65.3464 162.403 65.3772Q162.557 65.408 162.709 65.4484Q162.861 65.4889 163.01 65.5388Q163.159 65.5887 163.305 65.6479Q163.451 65.707 163.592 65.7753Q163.734 65.8435 163.871 65.9205Q164.008 65.9975 164.14 66.0829Q164.272 66.1684 164.399 66.2619Q164.525 66.3555 164.645 66.4568Q164.765 66.5582 164.879 66.6669Q164.993 66.7756 165.099 66.8912Q165.206 67.0068 165.305 67.1289Q165.404 67.2509 165.495 67.379Q165.587 67.5071 165.67 67.6406Q165.753 67.7742 165.827 67.9127Q165.902 68.0512 165.967 68.1941Q166.033 68.337 166.089 68.4838Q166.146 68.6305 166.193 68.7805Q166.24 68.9305 166.278 69.0832Q166.315 69.2359 166.343 69.3906Q166.371 69.5454 166.39 69.7016Q166.408 69.8577 166.416 70.0148Q166.424 70.1718 166.423 70.3291Z" id="path_3" />
    <path d="M342.177 69.8819L342.605 113.554Q342.607 113.733 342.621 113.911Q342.636 114.089 342.663 114.266Q342.69 114.442 342.73 114.617Q342.769 114.791 342.821 114.962Q342.873 115.133 342.938 115.3Q343.002 115.466 343.078 115.628Q343.153 115.79 343.241 115.946Q343.328 116.102 343.426 116.251Q343.524 116.4 343.632 116.542Q343.741 116.684 343.859 116.818Q343.978 116.952 344.105 117.077Q344.233 117.202 344.369 117.318Q344.505 117.433 344.65 117.539Q344.794 117.644 344.945 117.739Q345.096 117.834 345.254 117.918Q345.412 118.002 345.575 118.075L453.612 166.063L345.607 214.036Q345.442 214.109 345.283 214.194Q345.124 214.279 344.972 214.375Q344.819 214.471 344.674 214.578Q344.529 214.684 344.392 214.801Q344.255 214.918 344.126 215.045Q343.998 215.171 343.879 215.307Q343.76 215.442 343.651 215.586Q343.542 215.729 343.444 215.88Q343.346 216.031 343.259 216.189Q343.172 216.347 343.096 216.511Q343.021 216.674 342.957 216.843Q342.894 217.012 342.843 217.184Q342.791 217.357 342.753 217.533Q342.714 217.709 342.688 217.887Q342.662 218.066 342.649 218.246Q342.636 218.425 342.636 218.605L342.636 262.317Q342.636 262.473 342.646 262.63Q342.656 262.786 342.675 262.941Q342.695 263.096 342.724 263.25Q342.753 263.404 342.792 263.555Q342.831 263.707 342.879 263.856Q342.927 264.005 342.985 264.15Q343.042 264.296 343.109 264.438Q343.175 264.579 343.25 264.717Q343.325 264.854 343.409 264.986Q343.492 265.119 343.584 265.245Q343.675 265.372 343.775 265.493Q343.874 265.614 343.981 265.728Q344.088 265.843 344.202 265.95Q344.315 266.058 344.436 266.158Q344.556 266.258 344.682 266.351Q344.808 266.443 344.94 266.528Q345.072 266.612 345.209 266.688Q345.345 266.764 345.487 266.831Q345.628 266.898 345.773 266.957Q345.918 267.015 346.067 267.064Q346.216 267.113 346.367 267.153Q346.518 267.193 346.672 267.223Q346.825 267.253 346.981 267.274Q347.136 267.294 347.292 267.305Q347.448 267.316 347.604 267.317Q347.761 267.318 347.917 267.309Q348.073 267.3 348.229 267.282Q348.384 267.263 348.538 267.235Q348.692 267.207 348.844 267.169Q348.996 267.131 349.145 267.084Q349.294 267.037 349.44 266.98Q349.586 266.924 349.728 266.858L506.192 194.787Q506.354 194.712 506.51 194.627Q506.666 194.541 506.815 194.444Q506.965 194.347 507.107 194.24Q507.249 194.133 507.383 194.016Q507.518 193.899 507.643 193.773Q507.769 193.647 507.885 193.512Q508.002 193.377 508.108 193.235Q508.215 193.092 508.311 192.942Q508.407 192.792 508.492 192.636Q508.577 192.479 508.651 192.317Q508.724 192.155 508.786 191.988Q508.849 191.821 508.899 191.65Q508.949 191.479 508.986 191.305Q509.024 191.131 509.049 190.955Q509.075 190.779 509.087 190.601Q509.1 190.424 509.1 190.246L509.1 141.884Q509.1 141.706 509.087 141.528Q509.075 141.35 509.049 141.173Q509.024 140.997 508.986 140.823Q508.948 140.649 508.898 140.478Q508.848 140.306 508.786 140.139Q508.724 139.972 508.65 139.81Q508.576 139.648 508.49 139.491Q508.405 139.335 508.309 139.185Q508.213 139.035 508.106 138.892Q507.999 138.749 507.883 138.614Q507.766 138.479 507.64 138.353Q507.515 138.227 507.38 138.11Q507.245 137.993 507.103 137.886Q506.96 137.779 506.811 137.682Q506.661 137.586 506.505 137.5Q506.348 137.414 506.186 137.34L349.263 65.289Q349.12 65.2234 348.974 65.1669Q348.827 65.1105 348.677 65.0633Q348.527 65.0162 348.375 64.9785Q348.222 64.9409 348.067 64.9129Q347.913 64.8849 347.757 64.8666Q347.601 64.8484 347.444 64.84Q347.287 64.8317 347.129 64.8331Q346.972 64.8346 346.816 64.846Q346.659 64.8574 346.503 64.8785Q346.347 64.8997 346.193 64.9306Q346.039 64.9615 345.887 65.0021Q345.736 65.0426 345.587 65.0926Q345.438 65.1426 345.292 65.2018Q345.146 65.2611 345.005 65.3294Q344.863 65.3976 344.726 65.4747Q344.589 65.5517 344.457 65.6372Q344.326 65.7226 344.199 65.8162Q344.073 65.9098 343.953 66.0112Q343.833 66.1125 343.719 66.2212Q343.606 66.3299 343.499 66.4455Q343.393 66.5611 343.294 66.6831Q343.195 66.8052 343.104 66.9332Q343.013 67.0613 342.93 67.1948Q342.847 67.3283 342.772 67.4667Q342.698 67.6052 342.632 67.748Q342.567 67.8909 342.51 68.0376Q342.454 68.1842 342.407 68.3342Q342.36 68.4841 342.322 68.6367Q342.285 68.7893 342.257 68.944Q342.229 69.0986 342.21 69.2547Q342.192 69.4109 342.184 69.5678Q342.176 69.7247 342.177 69.8819Z" id="path_4" />
    <clipPath id="clip_1">
      <use xlink:href="#path_1" clip-rule="evenodd" fill-rule="evenodd" />
    </clipPath>
  </defs>
  <g id="icon 2" clip-path="url(#clip_1)">
    <path d="M520 0C564.189 0 600 35.8112 600 80L600 520C600 564.189 564.189 600 520 600L80 600C35.8112 600 0 564.189 0 520L0 80C0 35.8112 35.8112 0 80 0L520 0Z" id="icon-2" fill="none" stroke="none" />
    <g id="Outline" transform="translate(46 134)">
      <path d="M147 143L356 143L356 192L147 192L147 143Z" id="Rectangle" fill="#FFFFFF" fill-rule="evenodd" stroke="none" />
      <g id="Slash">
        <use xlink:href="#path_2" fill="none" stroke="#FFFFFF" stroke-width="90" stroke-linejoin="round" />
        <use stroke="none" fill="#FFFFFF" xlink:href="#path_2" fill-rule="evenodd" />
      </g>
      <g id="LT">
        <use xlink:href="#path_3" fill="none" stroke="#FFFFFF" stroke-width="90" stroke-linejoin="round" />
        <use stroke="none" fill="#FFFFFF" xlink:href="#path_3" fill-rule="evenodd" />
      </g>
      <g id="GT">
        <use xlink:href="#path_4" fill="none" stroke="#FFFFFF" stroke-width="90" stroke-linejoin="round" />
        <use stroke="none" fill="#FFFFFF" xlink:href="#path_4" fill-rule="evenodd" />
      </g>
    </g>
    <g id="Symnbols" transform="translate(41 134)">
      <path d="M288.738 0L330.293 0Q330.439 0 330.585 0.00856855Q330.732 0.0171371 330.877 0.0342448Q331.022 0.0513526 331.167 0.0769409Q331.311 0.102529 331.453 0.13651Q331.596 0.170491 331.736 0.212749Q331.876 0.255006 332.013 0.305395Q332.151 0.355785 332.285 0.414132Q332.42 0.47248 332.55 0.538587Q332.681 0.604694 332.807 0.678333Q332.934 0.751972 333.056 0.832891Q333.178 0.91381 333.295 1.00173Q333.412 1.08965 333.524 1.18428Q333.636 1.2789 333.742 1.3799Q333.848 1.4809 333.948 1.58793Q334.048 1.69496 334.141 1.80765Q334.235 1.92035 334.321 2.03832Q334.408 2.15629 334.488 2.27913Q334.567 2.40198 334.64 2.52928Q334.712 2.65657 334.777 2.78789Q334.842 2.9192 334.899 3.05408Q334.956 3.18896 335.005 3.32694Q335.054 3.46493 335.094 3.60554Q335.135 3.74615 335.168 3.88891Q335.2 4.03168 335.224 4.1761Q335.249 4.32052 335.264 4.4661Q335.28 4.61169 335.287 4.75794Q335.294 4.90419 335.293 5.05061Q335.291 5.19703 335.281 5.3431Q335.271 5.48918 335.252 5.63442Q335.234 5.77966 335.207 5.92356Q335.18 6.06747 335.144 6.20954Q335.109 6.35162 335.065 6.49137L234.128 329.491Q234.069 329.681 233.995 329.864Q233.921 330.048 233.833 330.226Q233.744 330.403 233.642 330.573Q233.54 330.743 233.425 330.905Q233.31 331.066 233.182 331.218Q233.055 331.369 232.916 331.511Q232.777 331.652 232.627 331.781Q232.477 331.911 232.317 332.028Q232.157 332.146 231.989 332.25Q231.82 332.355 231.644 332.445Q231.468 332.536 231.285 332.613Q231.102 332.689 230.914 332.751Q230.725 332.813 230.533 332.859Q230.34 332.906 230.144 332.937Q229.949 332.969 229.751 332.984Q229.554 333 229.355 333L187.801 333Q187.655 333 187.508 332.991Q187.362 332.983 187.217 332.966Q187.071 332.949 186.927 332.923Q186.783 332.897 186.641 332.863Q186.498 332.829 186.358 332.787Q186.218 332.745 186.08 332.695Q185.943 332.644 185.809 332.586Q185.674 332.528 185.544 332.461Q185.413 332.395 185.286 332.322Q185.16 332.248 185.038 332.167Q184.916 332.086 184.799 331.998Q184.682 331.91 184.57 331.816Q184.458 331.721 184.352 331.62Q184.246 331.519 184.146 331.412Q184.046 331.305 183.953 331.192Q183.859 331.08 183.773 330.962Q183.686 330.844 183.606 330.721Q183.526 330.598 183.454 330.471Q183.382 330.343 183.317 330.212Q183.252 330.081 183.195 329.946Q183.138 329.811 183.089 329.673Q183.04 329.535 182.999 329.394Q182.959 329.254 182.926 329.111Q182.893 328.968 182.869 328.824Q182.845 328.68 182.83 328.534Q182.814 328.388 182.807 328.242Q182.8 328.096 182.801 327.949Q182.803 327.803 182.813 327.657Q182.823 327.511 182.841 327.366Q182.86 327.22 182.887 327.076Q182.914 326.933 182.949 326.79Q182.985 326.648 183.029 326.509L283.966 3.50862Q284.025 3.31943 284.099 3.13551Q284.173 2.9516 284.261 2.77411Q284.35 2.59662 284.452 2.42667Q284.554 2.25672 284.669 2.09538Q284.784 1.93404 284.911 1.78233Q285.039 1.63061 285.178 1.48947Q285.317 1.34832 285.467 1.21864Q285.617 1.08896 285.777 0.971546Q285.937 0.854137 286.105 0.749737Q286.274 0.645338 286.45 0.554604Q286.626 0.463871 286.809 0.387372Q286.992 0.310874 287.18 0.249091Q287.368 0.187308 287.561 0.140629Q287.754 0.093949 287.949 0.0626655Q288.145 0.031382 288.343 0.015691Q288.54 0 288.738 0Z" id="Slash-2" fill="#228BE6" fill-rule="evenodd" stroke="none" />
      <path d="M171.423 69.8916L170.997 113.558Q170.995 113.737 170.98 113.915Q170.966 114.093 170.939 114.269Q170.912 114.445 170.872 114.62Q170.832 114.794 170.78 114.964Q170.729 115.135 170.665 115.302Q170.601 115.468 170.525 115.63Q170.449 115.792 170.362 115.948Q170.275 116.103 170.177 116.253Q170.079 116.402 169.971 116.544Q169.863 116.686 169.744 116.819Q169.626 116.953 169.499 117.078Q169.371 117.203 169.235 117.319Q169.099 117.434 168.956 117.54Q168.812 117.646 168.661 117.741Q168.51 117.836 168.352 117.92Q168.195 118.004 168.032 118.077L60.3217 166.063L168 214.034Q168.164 214.108 168.323 214.192Q168.482 214.277 168.634 214.373Q168.786 214.47 168.931 214.576Q169.076 214.683 169.213 214.8Q169.35 214.917 169.478 215.043Q169.606 215.17 169.725 215.305Q169.844 215.441 169.952 215.584Q170.061 215.728 170.159 215.879Q170.257 216.03 170.344 216.187Q170.431 216.345 170.506 216.509Q170.581 216.672 170.645 216.841Q170.708 217.009 170.759 217.182Q170.811 217.354 170.849 217.53Q170.888 217.706 170.913 217.884Q170.939 218.062 170.952 218.242Q170.965 218.421 170.965 218.602L170.965 262.307Q170.965 262.464 170.955 262.62Q170.946 262.776 170.926 262.932Q170.906 263.087 170.877 263.241Q170.848 263.395 170.809 263.546Q170.77 263.698 170.722 263.847Q170.674 263.996 170.617 264.142Q170.559 264.287 170.493 264.429Q170.426 264.571 170.351 264.708Q170.276 264.846 170.192 264.978Q170.109 265.11 170.017 265.237Q169.925 265.364 169.825 265.485Q169.726 265.606 169.619 265.72Q169.512 265.835 169.398 265.942Q169.285 266.05 169.164 266.15Q169.044 266.25 168.917 266.342Q168.791 266.435 168.659 266.519Q168.527 266.604 168.39 266.68Q168.253 266.756 168.112 266.823Q167.971 266.89 167.825 266.948Q167.68 267.007 167.531 267.056Q167.382 267.105 167.231 267.144Q167.079 267.184 166.926 267.214Q166.772 267.244 166.617 267.264Q166.462 267.285 166.305 267.296Q166.149 267.306 165.993 267.307Q165.836 267.308 165.68 267.299Q165.523 267.29 165.368 267.271Q165.212 267.253 165.059 267.224Q164.905 267.196 164.753 267.158Q164.601 267.12 164.451 267.072Q164.302 267.025 164.156 266.968Q164.01 266.912 163.868 266.846L7.90294 194.789Q7.74146 194.714 7.58568 194.628Q7.42991 194.542 7.28063 194.445Q7.13135 194.349 6.98933 194.242Q6.8473 194.134 6.71325 194.018Q6.5792 193.901 6.45379 193.774Q6.32839 193.648 6.21227 193.514Q6.09615 193.379 5.98989 193.236Q5.88364 193.093 5.7878 192.944Q5.69195 192.794 5.607 192.637Q5.52205 192.481 5.44842 192.319Q5.37479 192.157 5.31285 191.991Q5.25092 191.824 5.20099 191.653Q5.15106 191.482 5.11339 191.308Q5.07572 191.135 5.0505 190.958Q5.02528 190.782 5.01264 190.605Q5 190.428 5 190.25L5 141.88Q5 141.702 5.01267 141.524Q5.02534 141.346 5.05061 141.17Q5.07588 140.994 5.11363 140.82Q5.15138 140.646 5.20142 140.475Q5.25145 140.304 5.31352 140.137Q5.37559 139.97 5.44937 139.808Q5.52315 139.646 5.60828 139.49Q5.69341 139.333 5.78945 139.183Q5.88549 139.033 5.99195 138.891Q6.09841 138.748 6.21476 138.613Q6.33111 138.478 6.45676 138.352Q6.5824 138.226 6.71671 138.109Q6.85101 137.992 6.9933 137.885Q7.13558 137.778 7.28512 137.681Q7.43466 137.584 7.59071 137.498Q7.74675 137.413 7.9085 137.338L164.332 65.3012Q164.475 65.2354 164.621 65.1787Q164.768 65.1221 164.918 65.0747Q165.068 65.0274 165.22 64.9896Q165.373 64.9517 165.528 64.9236Q165.682 64.8954 165.839 64.877Q165.995 64.8587 166.152 64.8501Q166.309 64.8416 166.466 64.8429Q166.623 64.8443 166.78 64.8555Q166.937 64.8667 167.093 64.8878Q167.249 64.9089 167.403 64.9397Q167.557 64.9705 167.709 65.0109Q167.861 65.0514 168.01 65.1013Q168.159 65.1512 168.305 65.2104Q168.451 65.2695 168.592 65.3378Q168.734 65.406 168.871 65.483Q169.008 65.56 169.14 65.6454Q169.272 65.7309 169.399 65.8244Q169.525 65.918 169.645 66.0193Q169.765 66.1207 169.879 66.2294Q169.993 66.3381 170.099 66.4537Q170.206 66.5693 170.305 66.6914Q170.404 66.8135 170.495 66.9415Q170.587 67.0696 170.67 67.2032Q170.753 67.3367 170.827 67.4752Q170.902 67.6137 170.967 67.7566Q171.033 67.8995 171.089 68.0463Q171.146 68.193 171.193 68.343Q171.24 68.493 171.278 68.6457Q171.315 68.7984 171.343 68.9531Q171.371 69.1079 171.39 69.2641Q171.408 69.4203 171.416 69.5773Q171.424 69.7343 171.423 69.8916Z" id="LT-2" fill="#000000" fill-rule="evenodd" stroke="none" />
      <path d="M347.077 69.8819L347.505 113.554Q347.507 113.733 347.521 113.911Q347.536 114.089 347.563 114.266Q347.59 114.442 347.63 114.617Q347.669 114.791 347.721 114.962Q347.773 115.133 347.838 115.3Q347.902 115.466 347.978 115.628Q348.053 115.79 348.141 115.946Q348.228 116.102 348.326 116.251Q348.424 116.4 348.533 116.542Q348.641 116.684 348.759 116.818Q348.878 116.952 349.005 117.077Q349.133 117.202 349.269 117.318Q349.405 117.433 349.55 117.539Q349.694 117.644 349.845 117.739Q349.996 117.834 350.154 117.918Q350.312 118.002 350.475 118.075L458.512 166.063L350.507 214.036Q350.342 214.109 350.183 214.194Q350.024 214.279 349.872 214.375Q349.719 214.471 349.574 214.578Q349.429 214.684 349.292 214.801Q349.155 214.918 349.026 215.045Q348.898 215.171 348.779 215.307Q348.66 215.442 348.551 215.586Q348.442 215.729 348.344 215.88Q348.246 216.031 348.159 216.189Q348.072 216.347 347.996 216.511Q347.921 216.674 347.857 216.843Q347.794 217.012 347.743 217.184Q347.691 217.357 347.653 217.533Q347.614 217.709 347.588 217.887Q347.562 218.066 347.549 218.246Q347.536 218.425 347.536 218.605L347.536 262.317Q347.536 262.473 347.546 262.63Q347.556 262.786 347.576 262.941Q347.595 263.096 347.624 263.25Q347.653 263.404 347.692 263.555Q347.731 263.707 347.779 263.856Q347.827 264.005 347.885 264.15Q347.942 264.296 348.008 264.438Q348.075 264.579 348.15 264.717Q348.225 264.854 348.309 264.986Q348.392 265.119 348.484 265.245Q348.575 265.372 348.675 265.493Q348.774 265.614 348.881 265.728Q348.988 265.843 349.102 265.95Q349.215 266.058 349.336 266.158Q349.456 266.258 349.582 266.351Q349.708 266.443 349.84 266.528Q349.972 266.612 350.109 266.688Q350.245 266.764 350.387 266.831Q350.528 266.898 350.673 266.957Q350.819 267.015 350.967 267.064Q351.116 267.113 351.267 267.153Q351.418 267.193 351.572 267.223Q351.726 267.253 351.881 267.274Q352.036 267.294 352.192 267.305Q352.348 267.316 352.504 267.317Q352.661 267.318 352.817 267.309Q352.973 267.3 353.129 267.282Q353.284 267.263 353.438 267.235Q353.592 267.207 353.744 267.169Q353.896 267.131 354.045 267.084Q354.194 267.037 354.34 266.98Q354.486 266.924 354.628 266.858L511.092 194.787Q511.254 194.712 511.41 194.627Q511.566 194.541 511.715 194.444Q511.865 194.347 512.007 194.24Q512.149 194.133 512.284 194.016Q512.418 193.899 512.543 193.773Q512.669 193.647 512.785 193.512Q512.902 193.377 513.008 193.235Q513.115 193.092 513.211 192.942Q513.307 192.792 513.392 192.636Q513.477 192.479 513.551 192.317Q513.624 192.155 513.686 191.988Q513.749 191.821 513.799 191.65Q513.849 191.479 513.886 191.305Q513.924 191.131 513.949 190.955Q513.975 190.779 513.987 190.601Q514 190.424 514 190.246L514 141.884Q514 141.706 513.987 141.528Q513.975 141.35 513.949 141.173Q513.924 140.997 513.886 140.823Q513.848 140.649 513.798 140.478Q513.748 140.306 513.686 140.139Q513.624 139.972 513.55 139.81Q513.476 139.648 513.391 139.491Q513.305 139.335 513.209 139.185Q513.113 139.035 513.006 138.892Q512.899 138.749 512.783 138.614Q512.666 138.479 512.54 138.353Q512.415 138.227 512.28 138.11Q512.145 137.993 512.003 137.886Q511.86 137.779 511.711 137.682Q511.561 137.586 511.405 137.5Q511.248 137.414 511.086 137.34L354.163 65.289Q354.02 65.2234 353.874 65.1669Q353.727 65.1105 353.577 65.0633Q353.427 65.0162 353.275 64.9785Q353.122 64.9409 352.967 64.9129Q352.813 64.8849 352.657 64.8666Q352.501 64.8484 352.344 64.84Q352.187 64.8317 352.03 64.8331Q351.872 64.8346 351.716 64.846Q351.559 64.8574 351.403 64.8785Q351.247 64.8997 351.093 64.9306Q350.939 64.9615 350.787 65.0021Q350.636 65.0426 350.487 65.0926Q350.338 65.1426 350.192 65.2018Q350.046 65.2611 349.905 65.3294Q349.763 65.3976 349.626 65.4747Q349.489 65.5517 349.357 65.6372Q349.226 65.7226 349.099 65.8162Q348.973 65.9098 348.853 66.0112Q348.733 66.1125 348.619 66.2212Q348.506 66.3299 348.399 66.4455Q348.293 66.5611 348.194 66.6831Q348.095 66.8052 348.004 66.9332Q347.913 67.0613 347.83 67.1948Q347.747 67.3283 347.672 67.4667Q347.598 67.6052 347.532 67.748Q347.467 67.8909 347.41 68.0376Q347.354 68.1842 347.307 68.3342Q347.26 68.4841 347.222 68.6367Q347.185 68.7893 347.157 68.944Q347.129 69.0986 347.111 69.2547Q347.092 69.4109 347.084 69.5678Q347.076 69.7247 347.077 69.8819Z" id="GT-2" fill="#000000" fill-rule="evenodd" stroke="none" />
    </g>
  </g>
</svg>